<svg width="192" height="192"
  xmlns="http://www.w3.org/2000/svg">
  <g>
    <ellipse cx="96" cy="96" fill="#121212" rx="96" ry="96" />
    <path d="m96.55,153.1q-19.79,0 -35.03,-12.02t-19.79,-30.71q-0.63,-2.36 0.94,-4.32t4.25,-2.28q2.51,-0.31 4.55,0.94t2.83,3.78q3.78,14.14 15.55,23.09t26.7,8.96q18.38,0 31.18,-12.8t12.8,-31.18q0,-18.38 -12.8,-31.18t-31.18,-12.8q-10.84,0 -20.26,5.03t-15.87,13.82l10.99,0q2.67,0 4.48,1.8t1.8,4.48q0,2.67 -1.8,4.48t-4.48,1.8l-25.13,0q-2.67,0 -4.48,-1.8t-1.8,-4.48l0,-25.13q0,-2.67 1.8,-4.48t4.48,-1.8q2.67,0 4.48,1.8t1.8,4.48l0,8.48q8.01,-10.05 19.56,-15.55t24.42,-5.5q11.78,0 22.07,4.48t17.91,12.09q7.62,7.62 12.09,17.91t4.48,22.07q0,11.78 -4.48,22.07t-12.09,17.91q-7.62,7.62 -17.91,12.09t-22.07,4.48l-0.01,0l0.01,0.02l-0.01,-0.01zm0,-43.98q-5.18,0 -8.88,-3.69t-3.69,-8.88q0,-5.18 3.69,-8.88t8.88,-3.69q5.18,0 8.88,3.69t3.69,8.88q0,5.18 -3.69,8.88t-8.88,3.69z" fill="#f2f2f2" />
  </g>
</svg>
